<?xml version="1.0" encoding="UTF-8" standalone="no" ?>
<!DOCTYPE svg PUBLIC "-//W3C//DTD SVG 1.1//EN" "http://www.w3.org/Graphics/SVG/1.1/DTD/svg11.dtd">
<svg xmlns="http://www.w3.org/2000/svg" xmlns:xlink="http://www.w3.org/1999/xlink" version="1.1" width="1080" height="1080" viewBox="0 0 1080 1080" xml:space="preserve">
<desc>Created with Fabric.js 5.2.4</desc>
<defs>
</defs>
<g transform="matrix(1 0 0 1 540 540)" id="0ef35a08-61f0-412b-90da-559925d16b7d"  >
<rect style="stroke: none; stroke-width: 1; stroke-dasharray: none; stroke-linecap: butt; stroke-dashoffset: 0; stroke-linejoin: miter; stroke-miterlimit: 4; fill: rgb(255,255,255); fill-rule: nonzero; opacity: 1; visibility: hidden;" vector-effect="non-scaling-stroke"  x="-540" y="-540" rx="0" ry="0" width="1080" height="1080" />
</g>
<g transform="matrix(1 0 0 1 540 540)" id="eced21c3-ba21-47be-b3db-f747a784c543"  >
</g>
<g transform="matrix(1 0 0 1 540 540)"  >
<g style="" vector-effect="non-scaling-stroke"   >
		<g transform="matrix(1 0 0 1 -187.23 0)"  >
<path style="stroke: none; stroke-width: 1; stroke-dasharray: none; stroke-linecap: butt; stroke-dashoffset: 0; stroke-linejoin: miter; stroke-miterlimit: 4; fill: rgb(255,255,255); fill-rule: evenodd; opacity: 1;" vector-effect="non-scaling-stroke"  transform=" translate(-67, -64)" d="M 5 41.8552 C 5 19.8438 22.8438 2 44.8552 2 L 89.1448 2 C 111.156 2 129 19.8438 129 41.8552 L 129 86.1448 C 129 108.156 111.156 126 89.1448 126 L 44.8552 126 C 22.8438 126 5 108.156 5 86.1448 L 5 41.8552 Z M 54.0365 53.3941 L 54.0365 30.6651 L 42.9248 30.6651 L 42.9248 74.1853 L 42.9248 76.9638 L 43.0775 76.9638 C 44.4596 89.464 55.0575 99.1866 67.9261 99.1866 C 81.7339 99.1866 92.9274 87.9931 92.9274 74.1853 L 81.8157 74.1853 C 81.8157 81.8563 75.5971 88.0749 67.9261 88.0749 C 60.2551 88.0749 54.0365 81.8563 54.0365 74.1853 C 54.0365 66.5143 60.2551 60.2957 67.9261 60.2957 L 67.9261 49.184 C 62.7866 49.184 58.0092 50.7348 54.0365 53.3941 Z" stroke-linecap="round" />
</g>
		<g transform="matrix(1 0 0 1 -175.2 -4.63)"  >
<path style="stroke: none; stroke-width: 1; stroke-dasharray: none; stroke-linecap: butt; stroke-dashoffset: 0; stroke-linejoin: miter; stroke-miterlimit: 4; fill: rgb(255,255,255); fill-rule: evenodd; opacity: 1;" vector-effect="non-scaling-stroke"  transform=" translate(-79.04, -59.37)" d="M 80.118 49.1846 L 85.5195 59.3703 L 80.118 69.556 L 72.5559 69.556 L 77.9574 59.3703 L 72.5559 49.1846 L 80.118 49.1846 Z" stroke-linecap="round" />
</g>
		<g transform="matrix(1 0 0 1 -162.23 -4.63)"  >
<path style="stroke: none; stroke-width: 1; stroke-dasharray: none; stroke-linecap: butt; stroke-dashoffset: 0; stroke-linejoin: miter; stroke-miterlimit: 4; fill: rgb(255,255,255); fill-rule: evenodd; opacity: 1;" vector-effect="non-scaling-stroke"  transform=" translate(-92, -59.37)" d="M 93.0814 49.1846 L 98.4829 59.3703 L 93.0814 69.556 L 85.5193 69.556 L 90.9208 59.3703 L 85.5193 49.1846 L 93.0814 49.1846 Z" stroke-linecap="round" />
</g>
		<g transform="matrix(1 0 0 1 -74.49 -1.84)"  >
<path style="stroke: none; stroke-width: 1; stroke-dasharray: none; stroke-linecap: butt; stroke-dashoffset: 0; stroke-linejoin: miter; stroke-miterlimit: 4; fill: rgb(255,255,255); fill-rule: nonzero; opacity: 1;" vector-effect="non-scaling-stroke"  transform=" translate(-179.75, -62.16)" d="M 182.389 90.1184 C 177.079 90.1184 173.173 88.1015 170.671 84.0678 L 170.518 84.0678 L 170.518 88.9696 L 160.484 88.9696 L 160.484 34.2072 L 170.901 34.2072 L 170.901 54.4271 L 171.13 54.4271 C 173.632 50.5465 177.283 48.6062 182.083 48.6062 C 187.036 48.6062 191.095 50.5465 194.261 54.4271 C 197.427 58.2567 199.01 63.2351 199.01 69.3623 C 199.01 75.6938 197.478 80.7488 194.414 84.5273 C 191.35 88.2547 187.342 90.1184 182.389 90.1184 Z M 180.092 81.3871 C 182.747 81.3871 184.789 80.3403 186.219 78.2469 C 187.7 76.1534 188.44 73.1919 188.44 69.3623 C 188.44 65.5838 187.674 62.5968 186.142 60.4012 C 184.662 58.1545 182.517 57.0312 179.709 57.0312 C 173.684 57.0312 170.671 61.2182 170.671 69.5921 C 170.671 73.2174 171.513 76.1023 173.198 78.2469 C 174.883 80.3403 177.181 81.3871 180.092 81.3871 Z" stroke-linecap="round" />
</g>
		<g transform="matrix(1 0 0 1 -46.54 -2.41)"  >
<path style="stroke: none; stroke-width: 1; stroke-dasharray: none; stroke-linecap: butt; stroke-dashoffset: 0; stroke-linejoin: miter; stroke-miterlimit: 4; fill: rgb(255,255,255); fill-rule: nonzero; opacity: 1;" vector-effect="non-scaling-stroke"  transform=" translate(-207.7, -61.59)" d="M 202.487 88.9696 L 202.487 34.2072 L 212.904 34.2072 L 212.904 88.9696 L 202.487 88.9696 Z" stroke-linecap="round" />
</g>
		<g transform="matrix(1 0 0 1 -17.39 5.36)"  >
<path style="stroke: none; stroke-width: 1; stroke-dasharray: none; stroke-linecap: butt; stroke-dashoffset: 0; stroke-linejoin: miter; stroke-miterlimit: 4; fill: rgb(255,255,255); fill-rule: nonzero; opacity: 1;" vector-effect="non-scaling-stroke"  transform=" translate(-236.84, -69.36)" d="M 251.623 84.2209 C 247.794 88.1526 242.866 90.1184 236.841 90.1184 C 230.816 90.1184 225.889 88.1526 222.059 84.2209 C 218.23 80.2382 216.315 75.2853 216.315 69.3623 C 216.315 63.4393 218.23 58.512 222.059 54.5803 C 225.889 50.5976 230.816 48.6062 236.841 48.6062 C 242.866 48.6062 247.794 50.5976 251.623 54.5803 C 255.453 58.512 257.368 63.4393 257.368 69.3623 C 257.368 75.2853 255.453 80.2382 251.623 84.2209 Z M 236.841 82.153 C 239.956 82.153 242.381 81.0041 244.117 78.7064 C 245.904 76.3576 246.798 73.2429 246.798 69.3623 C 246.798 65.4817 245.904 62.367 244.117 60.0182 C 242.381 57.6695 239.956 56.4951 236.841 56.4951 C 233.675 56.4951 231.225 57.6695 229.488 60.0182 C 227.752 62.316 226.884 65.4307 226.884 69.3623 C 226.884 73.2429 227.752 76.3576 229.488 78.7064 C 231.225 81.0041 233.675 82.153 236.841 82.153 Z" stroke-linecap="round" />
</g>
		<g transform="matrix(1 0 0 1 23.45 5.36)"  >
<path style="stroke: none; stroke-width: 1; stroke-dasharray: none; stroke-linecap: butt; stroke-dashoffset: 0; stroke-linejoin: miter; stroke-miterlimit: 4; fill: rgb(255,255,255); fill-rule: nonzero; opacity: 1;" vector-effect="non-scaling-stroke"  transform=" translate(-277.68, -69.36)" d="M 278.906 90.1184 C 272.83 90.1184 267.954 88.1526 264.277 84.2209 C 260.601 80.2893 258.763 75.3364 258.763 69.3623 C 258.763 63.3882 260.55 58.4354 264.124 54.5037 C 267.75 50.5721 272.498 48.6062 278.37 48.6062 C 283.323 48.6062 287.357 49.9083 290.471 52.5124 C 293.586 55.1164 295.501 58.6141 296.216 63.0053 L 286.029 63.0053 C 285.672 61.2182 284.855 59.7629 283.578 58.6396 C 282.302 57.5163 280.719 56.9546 278.83 56.9546 C 275.766 56.9546 273.417 58.0524 271.783 60.248 C 270.149 62.4436 269.332 65.4817 269.332 69.3623 C 269.332 73.1919 270.124 76.23 271.707 78.4766 C 273.29 80.6722 275.613 81.77 278.677 81.77 C 283.221 81.77 285.851 79.5489 286.565 75.1066 L 296.599 75.1066 C 296.241 79.4468 294.48 83.0465 291.314 85.9059 C 288.148 88.7143 284.012 90.1184 278.906 90.1184 Z" stroke-linecap="round" />
</g>
		<g transform="matrix(1 0 0 1 64.64 -2.41)"  >
<path style="stroke: none; stroke-width: 1; stroke-dasharray: none; stroke-linecap: butt; stroke-dashoffset: 0; stroke-linejoin: miter; stroke-miterlimit: 4; fill: rgb(255,255,255); fill-rule: nonzero; opacity: 1;" vector-effect="non-scaling-stroke"  transform=" translate(-318.87, -61.59)" d="M 325.498 88.9696 L 314.469 71.0473 L 309.95 75.7194 L 309.95 88.9696 L 299.61 88.9696 L 299.61 34.2072 L 309.95 34.2072 L 309.95 64.5371 L 323.89 49.6785 L 336.374 49.6785 L 321.898 64.6137 L 338.135 88.9696 L 325.498 88.9696 Z" stroke-linecap="round" />
</g>
		<g transform="matrix(1 0 0 1 101.96 5.36)"  >
<path style="stroke: none; stroke-width: 1; stroke-dasharray: none; stroke-linecap: butt; stroke-dashoffset: 0; stroke-linejoin: miter; stroke-miterlimit: 4; fill: rgb(255,255,255); fill-rule: nonzero; opacity: 1;" vector-effect="non-scaling-stroke"  transform=" translate(-356.19, -69.36)" d="M 357.187 90.1184 C 350.855 90.1184 345.877 88.1781 342.252 84.2975 C 338.626 80.3659 336.814 75.3619 336.814 69.2857 C 336.814 63.4138 338.626 58.512 342.252 54.5803 C 345.877 50.5976 350.523 48.6062 356.191 48.6062 C 362.369 48.6062 367.144 50.7508 370.514 55.0398 C 373.884 59.3289 375.569 65.0732 375.569 72.2728 L 347.077 72.2728 C 347.485 75.3875 348.532 77.8128 350.217 79.5489 C 351.902 81.2339 354.2 82.0764 357.11 82.0764 C 360.94 82.0764 363.467 80.468 364.693 77.2512 L 374.956 77.2512 C 374.19 80.9275 372.25 83.9912 369.135 86.4421 C 366.02 88.893 362.038 90.1184 357.187 90.1184 Z M 356.344 56.6483 C 351.289 56.6483 348.251 59.4566 347.23 65.0732 L 364.693 65.0732 C 364.54 62.5713 363.697 60.5544 362.165 59.0226 C 360.633 57.4397 358.693 56.6483 356.344 56.6483 Z" stroke-linecap="round" />
</g>
		<g transform="matrix(1 0 0 1 143.5 -1.84)"  >
<path style="stroke: none; stroke-width: 1; stroke-dasharray: none; stroke-linecap: butt; stroke-dashoffset: 0; stroke-linejoin: miter; stroke-miterlimit: 4; fill: rgb(255,255,255); fill-rule: nonzero; opacity: 1;" vector-effect="non-scaling-stroke"  transform=" translate(-397.74, -62.16)" d="M 395.095 90.1184 C 390.142 90.1184 386.134 88.2547 383.07 84.5273 C 380.007 80.7488 378.475 75.6938 378.475 69.3623 C 378.475 63.2351 380.032 58.2567 383.147 54.4271 C 386.313 50.5465 390.346 48.6062 395.248 48.6062 C 400.15 48.6062 403.852 50.5465 406.354 54.4271 L 406.584 54.4271 L 406.584 34.2072 L 417 34.2072 L 417 88.9696 L 406.967 88.9696 L 406.967 83.838 L 406.814 83.838 C 404.26 88.0249 400.354 90.1184 395.095 90.1184 Z M 397.393 81.3871 C 400.456 81.3871 402.78 80.3403 404.363 78.2469 C 405.997 76.1534 406.814 73.2685 406.814 69.5921 C 406.814 61.2182 403.775 57.0312 397.699 57.0312 C 394.891 57.0312 392.746 58.1545 391.266 60.4012 C 389.785 62.6479 389.044 65.6349 389.044 69.3623 C 389.044 73.1919 389.759 76.1534 391.189 78.2469 C 392.67 80.3403 394.738 81.3871 397.393 81.3871 Z" stroke-linecap="round" />
</g>
		<g transform="matrix(1 0 0 1 186.65 11.49)"  >
<path style="stroke: none; stroke-width: 1; stroke-dasharray: none; stroke-linecap: butt; stroke-dashoffset: 0; stroke-linejoin: miter; stroke-miterlimit: 4; fill: rgb(255,255,255); fill-rule: nonzero; opacity: 1;" vector-effect="non-scaling-stroke"  transform=" translate(-440.89, -75.49)" d="M 441.081 102.373 C 435.77 102.373 431.507 101.301 428.29 99.1561 C 425.124 97.0116 423.261 93.999 422.699 90.1184 L 433.039 90.1184 C 434.06 93.0289 436.689 94.4841 440.927 94.4841 C 446.748 94.4841 449.659 91.7524 449.659 86.2889 L 449.659 81.9998 L 449.429 81.9998 C 446.723 85.0634 443.302 86.5952 439.166 86.5952 C 434.519 86.5952 430.46 84.8847 426.988 81.4637 C 423.567 78.0426 421.856 73.4982 421.856 67.8305 C 421.856 62.0096 423.439 57.3631 426.605 53.891 C 429.771 50.3678 433.856 48.6062 438.86 48.6062 C 443.608 48.6062 447.233 50.3423 449.735 53.8144 L 449.889 53.8144 L 449.889 49.6785 L 459.922 49.6785 L 459.922 85.9825 C 459.922 91.0886 458.365 95.0713 455.25 97.9307 C 452.084 100.892 447.361 102.373 441.081 102.373 Z M 440.927 78.2469 C 444.042 78.2469 446.365 77.2512 447.897 75.2598 C 449.429 73.2685 450.195 70.7154 450.195 67.6007 C 450.195 64.5371 449.378 62.0096 447.744 60.0182 C 446.161 57.9758 443.863 56.9546 440.851 56.9546 C 438.196 56.9546 436.051 57.9248 434.417 59.8651 C 432.834 61.8054 432.043 64.4095 432.043 67.6773 C 432.043 70.9963 432.834 73.6003 434.417 75.4896 C 436.051 77.3278 438.221 78.2469 440.927 78.2469 Z" stroke-linecap="round" />
</g>
		<g transform="matrix(1 0 0 1 229.86 5.36)"  >
<path style="stroke: none; stroke-width: 1; stroke-dasharray: none; stroke-linecap: butt; stroke-dashoffset: 0; stroke-linejoin: miter; stroke-miterlimit: 4; fill: rgb(255,255,255); fill-rule: nonzero; opacity: 1;" vector-effect="non-scaling-stroke"  transform=" translate(-484.09, -69.36)" d="M 485.087 90.1184 C 478.756 90.1184 473.778 88.1781 470.152 84.2975 C 466.527 80.3659 464.714 75.3619 464.714 69.2857 C 464.714 63.4138 466.527 58.512 470.152 54.5803 C 473.778 50.5976 478.424 48.6062 484.092 48.6062 C 490.27 48.6062 495.044 50.7508 498.414 55.0398 C 501.784 59.3289 503.469 65.0732 503.469 72.2728 L 474.977 72.2728 C 475.386 75.3875 476.433 77.8128 478.118 79.5489 C 479.803 81.2339 482.1 82.0764 485.011 82.0764 C 488.84 82.0764 491.368 80.468 492.593 77.2512 L 502.857 77.2512 C 502.091 80.9275 500.15 83.9912 497.036 86.4421 C 493.921 88.893 489.938 90.1184 485.087 90.1184 Z M 484.245 56.6483 C 479.19 56.6483 476.152 59.4566 475.131 65.0732 L 492.593 65.0732 C 492.44 62.5713 491.598 60.5544 490.066 59.0226 C 488.534 57.4397 486.594 56.6483 484.245 56.6483 Z" stroke-linecap="round" />
</g>
</g>
</g>
</svg>