<?xml version="1.0" standalone="no"?>
<svg xmlns:xlink="http://www.w3.org/1999/xlink" id="wave" style="transform:rotate(0deg); transition: 0.3s" viewBox="0 0 1440 490" version="1.1" xmlns="http://www.w3.org/2000/svg"><defs><linearGradient id="sw-gradient-0" x1="0" x2="0" y1="1" y2="0"><stop stop-color="rgba(243.936, 177.678, 156.398, 1)" offset="0%"/><stop stop-color="rgba(14.96, 11, 255, 1)" offset="100%"/></linearGradient></defs><path style="transform:translate(0, 0px); opacity:1" fill="url(#sw-gradient-0)" d="M0,392L360,441L720,343L1080,294L1440,245L1800,392L2160,245L2520,392L2880,392L3240,49L3600,0L3960,49L4320,147L4680,0L5040,343L5400,147L5760,49L6120,392L6480,245L6840,49L7200,147L7560,441L7920,343L8280,441L8640,49L8640,490L8280,490L7920,490L7560,490L7200,490L6840,490L6480,490L6120,490L5760,490L5400,490L5040,490L4680,490L4320,490L3960,490L3600,490L3240,490L2880,490L2520,490L2160,490L1800,490L1440,490L1080,490L720,490L360,490L0,490Z"/></svg>